<svg xmlns="http://www.w3.org/2000/svg" viewBox="0 0 1024 1024">
  <rect x="88" y="88" width="848" height="848" rx="204" fill="#f6f7f8"/>
  <path d="M188 274c0-44 36-80 80-80h488c44 0 80 36 80 80v476c0 44-36 80-80 80H268c-44 0-80-36-80-80V274z" fill="#ffffff"/>
  <path d="M188 274c0-44 36-80 80-80h488c44 0 80 36 80 80v100H188V274z" fill="#e8eff9"/>
  <path d="M188 374h648v376c0 44-36 80-80 80H268c-44 0-80-36-80-80V374z" fill="#fdfefe"/>
  <path d="M300 464h164c17 0 30 13 30 30v174c0 17-13 30-30 30H300c-17 0-30-13-30-30V494c0-17 13-30 30-30z" fill="#dcecff"/>
  <path d="M560 470h174c17 0 30 13 30 30v28H530v-28c0-17 13-30 30-30z" fill="#e7edf5"/>
  <path d="M530 560h234v52H530z" fill="#eef3f8"/>
  <path d="M530 644h164v52H530z" fill="#eef3f8"/>
  <path d="M278 301h468" fill="none" stroke="#7f8fa6" stroke-width="26" stroke-linecap="round"/>
  <path d="M274 450h224v270H274z" fill="none" stroke="#007aff" stroke-width="28" stroke-linejoin="round"/>
  <path d="M188 374h648" fill="none" stroke="#d5dce5" stroke-width="22"/>
  <path d="M268 194h488c44 0 80 36 80 80v476c0 44-36 80-80 80H268c-44 0-80-36-80-80V274c0-44 36-80 80-80z" fill="none" stroke="#cfd7e2" stroke-width="18"/>
  <circle cx="284" cy="284" r="24" fill="#ff5f57"/>
  <circle cx="364" cy="284" r="24" fill="#ffbd2e"/>
  <circle cx="444" cy="284" r="24" fill="#28c840"/>
</svg>
